<?xml version="1.0" encoding="UTF-8"?>
<svg width="400" height="400" viewBox="0 0 400 400" fill="none" xmlns="http://www.w3.org/2000/svg">
  <!-- Person -->
  <path d="M200 100 C 180 100, 160 120, 160 150 C 160 180, 180 200, 200 200 C 220 200, 240 180, 240 150 C 240 120, 220 100, 200 100" fill="#2563EB"/>
  <!-- Laptop -->
  <rect x="150" y="220" width="100" height="60" rx="5" fill="#2563EB"/>
  <!-- Coffee Cup -->
  <path d="M280 200 C 270 200, 260 220, 260 240 C 260 260, 270 280, 280 280 C 290 280, 300 260, 300 240 C 300 220, 290 200, 280 200" fill="#2563EB"/>
  <!-- Steam -->
  <path d="M280 190 Q 285 180 280 170 Q 275 160 280 150" stroke="#2563EB" stroke-width="2" fill="none"/>
  <!-- Plant -->
  <path d="M320 280 Q 330 260 320 240 Q 310 220 320 200" stroke="#2563EB" stroke-width="2" fill="none"/>
  <circle cx="320" cy="290" r="10" fill="#2563EB"/>
</svg> 